<?xml version="1.0" standalone="no"?>
<!DOCTYPE svg PUBLIC "-//W3C//DTD SVG 20010904//EN"
 "http://www.w3.org/TR/2001/REC-SVG-20010904/DTD/svg10.dtd">
<svg version="1.0" xmlns="http://www.w3.org/2000/svg"
 width="431.000000pt" height="431.000000pt" viewBox="0 0 431.000000 431.000000"
 preserveAspectRatio="xMidYMid meet">
<metadata>
Created by potrace 1.14, written by Peter Selinger 2001-2017
</metadata>
<g transform="translate(0.000000,431.000000) scale(0.100000,-0.100000)"
fill="#000000" stroke="none">
<path d="M1940 3821 c0 -10 19 -25 25 -20 1 2 -3 10 -11 17 -8 7 -14 8 -14 3z"/>
<path d="M1983 3817 c0 -7 9 -13 19 -13 10 0 18 1 18 3 0 1 -8 7 -18 12 -13 7
-19 6 -19 -2z"/>
<path d="M1905 3781 c-4 -13 -12 -18 -23 -15 -9 3 -2 -4 16 -16 18 -13 36 -20
39 -16 4 3 1 6 -6 6 -7 0 -9 4 -6 10 4 6 -1 7 -11 3 -14 -5 -15 -3 -5 15 12
23 33 30 29 11 -2 -6 4 -14 12 -16 12 -4 12 -3 2 5 -8 5 -13 13 -12 18 3 19
-29 14 -35 -5z"/>
<path d="M2135 3781 c6 -11 4 -13 -8 -8 -12 4 -14 2 -10 -11 6 -14 4 -15 -8
-5 -13 11 -15 9 -14 -7 1 -22 15 -40 15 -20 0 9 7 7 23 -6 l22 -19 -18 22
c-18 20 -18 22 0 31 15 9 16 13 4 24 -12 11 -13 11 -6 -1z"/>
<path d="M1770 3756 c0 -2 7 -7 16 -10 8 -3 12 -2 9 4 -6 10 -25 14 -25 6z"/>
<path d="M1960 3750 c-9 -6 -10 -10 -3 -10 6 0 15 5 18 10 8 12 4 12 -15 0z"/>
<path d="M1857 3743 c-18 -17 0 -25 82 -40 14 -2 31 -12 39 -21 7 -9 11 -11 7
-4 -3 6 -2 12 4 12 5 0 12 -6 14 -12 4 -10 6 -10 6 -1 1 7 8 10 16 7 9 -4 14
-18 13 -40 -1 -30 -3 -32 -15 -16 -8 9 -11 11 -7 3 6 -11 3 -13 -12 -7 -10 5
-24 9 -31 9 -6 0 -10 9 -8 19 2 10 0 16 -6 13 -5 -4 -9 -11 -9 -16 0 -5 -20
-31 -45 -57 -40 -41 -45 -44 -45 -24 0 16 4 21 13 16 9 -5 9 -4 0 6 -9 9 -9
19 -2 32 6 11 8 22 5 26 -3 3 -6 0 -6 -7 0 -7 -5 -9 -10 -6 -6 4 -7 11 -3 18
11 18 9 54 -3 54 -9 0 -10 -7 -4 -23 6 -14 5 -26 -1 -29 -5 -4 -6 -11 -3 -17
7 -12 7 -358 -1 -366 -2 -3 -206 49 -452 115 l-448 121 -32 -34 c-18 -19 -37
-34 -42 -34 -6 0 -11 -7 -11 -16 0 -8 -5 -12 -10 -9 -6 4 -8 11 -5 16 4 5 1 9
-5 9 -8 0 -9 -7 -5 -17 12 -27 12 -66 2 -80 -6 -9 -5 -13 2 -13 7 0 9 -5 6
-10 -5 -7 -11 -8 -19 -1 -9 7 -12 4 -13 -12 0 -12 1 -17 4 -10 2 7 11 9 18 6
11 -4 12 -10 4 -24 -7 -14 -6 -19 2 -19 8 0 9 -4 0 -13 -23 -29 1 -41 191 -93
15 -4 18 -21 20 -106 l3 -102 98 -25 97 -25 0 -100 0 -101 183 -48 c100 -27
190 -51 199 -53 16 -5 18 -20 17 -140 0 -111 -3 -135 -14 -130 -7 2 -30 8 -49
12 -20 3 -34 9 -32 13 2 3 -18 7 -45 8 -29 1 -47 -2 -43 -8 3 -5 10 -7 15 -4
5 3 6 -1 2 -11 -5 -15 -7 -14 -17 2 -6 11 -11 23 -11 28 0 5 -12 11 -28 13
-15 2 -37 7 -49 12 -19 7 -31 0 -75 -43 l-53 -51 0 -134 0 -133 -27 6 c-16 3
-37 8 -48 11 -15 4 -34 -8 -72 -46 -44 -43 -53 -58 -53 -87 0 -25 -4 -33 -14
-29 -8 3 -31 9 -50 13 -34 6 -40 3 -86 -44 l-50 -51 0 -99 0 -99 233 -62 c127
-34 261 -70 297 -80 l65 -18 53 52 c41 40 52 58 52 83 0 36 1 36 50 21 19 -5
43 -12 54 -14 25 -6 191 -49 302 -79 l92 -24 51 52 c40 41 51 59 51 84 0 37
-3 36 56 21 l44 -11 1 -207 c1 -113 1 -209 1 -213 -1 -3 5 -12 14 -19 12 -9
17 -10 27 0 9 10 8 11 -4 6 -10 -4 -20 -2 -24 4 -4 8 6 9 32 5 21 -3 44 -6 51
-6 6 -1 12 -5 12 -10 0 -5 4 -7 9 -3 6 3 15 -4 21 -15 6 -11 16 -20 23 -19 9
0 9 2 0 6 -21 8 -15 22 8 16 12 -4 18 -11 15 -20 -3 -8 -6 -17 -6 -19 0 -3 -5
-2 -12 2 -7 4 -8 3 -4 -5 4 -6 11 -9 16 -6 5 3 11 1 15 -5 3 -6 -1 -13 -10
-16 -13 -5 -13 -8 -2 -18 10 -7 13 -25 10 -53 -5 -38 -7 -41 -23 -33 -13 7
-21 7 -25 0 -4 -6 -3 -9 2 -8 4 1 18 -1 31 -6 22 -7 22 -9 22 -210 l0 -203 98
-26 97 -25 53 51 c44 44 52 57 52 89 0 33 2 36 23 32 72 -17 82 -15 109 13 20
22 24 32 17 48 -9 19 -9 19 -5 -2 4 -22 -18 -52 -26 -36 -3 4 -3 3 -2 -4 2 -7
-1 -15 -5 -18 -15 -9 -19 55 -4 67 10 8 10 14 2 24 -6 8 -9 23 -6 34 3 11 1
20 -5 20 -5 0 -6 5 -2 12 5 8 11 6 19 -6 11 -15 13 -15 19 -1 3 9 2 13 -3 10
-5 -3 -13 0 -17 6 -7 12 15 31 28 23 4 -3 5 3 1 12 -4 12 -3 15 5 10 7 -4 12
-1 12 9 0 9 5 13 10 10 6 -3 10 1 10 10 0 9 5 13 10 10 6 -4 10 47 10 144 0
87 4 151 9 151 5 0 21 -4 35 -10 20 -7 24 -6 19 5 -3 8 -9 12 -14 9 -12 -7
-49 14 -49 29 0 7 4 6 10 -3 8 -13 10 -12 10 3 0 9 -5 17 -11 17 -6 0 -3 7 5
16 18 18 20 30 6 39 -5 3 -7 0 -4 -8 3 -8 1 -18 -4 -21 -13 -8 -11 67 2 76 7
5 7 8 -1 8 -7 0 -13 5 -13 11 0 5 5 7 10 4 6 -3 10 1 10 9 0 8 -5 18 -10 21
-8 5 -8 11 0 20 8 10 7 14 -2 18 -9 4 -10 6 -1 6 7 1 17 11 23 24 10 20 10 20
-3 5 -17 -22 -24 -23 -24 -3 0 8 5 15 11 15 6 0 5 4 -3 9 -10 7 -7 9 12 8 14
-1 23 -5 21 -8 -2 -4 3 -10 12 -13 9 -4 13 -2 8 5 -4 7 0 7 15 -1 22 -11 20
-35 -2 -24 -7 3 -4 -1 5 -8 15 -13 15 -15 0 -26 -9 -7 -12 -10 -5 -7 6 3 15 0
19 -6 5 -8 3 -9 -6 -4 -10 6 -12 4 -7 -8 9 -25 -6 -28 -33 -6 -14 11 -19 18
-12 17 8 -2 18 7 23 20 7 20 6 21 -10 13 -10 -6 -20 -8 -23 -6 -6 6 -2 -40 6
-73 3 -15 0 -25 -10 -29 -13 -5 -13 -8 1 -23 18 -20 28 -60 14 -60 -5 0 -9 -5
-9 -10 0 -6 11 -3 24 5 29 19 35 12 31 -37 -2 -27 1 -38 10 -38 7 0 15 4 17 9
2 5 21 29 43 53 24 26 41 55 43 73 2 20 0 26 -6 17 -7 -10 -11 -10 -22 2 -8
10 -22 14 -40 11 -19 -3 -27 -1 -27 10 0 8 1 15 1 15 1 0 17 -5 36 -11 19 -5
46 -12 60 -15 14 -3 42 -9 63 -15 l37 -10 0 -99 c0 -85 2 -99 18 -104 43 -13
167 -46 173 -46 3 0 29 22 57 49 l52 50 0 300 0 300 -42 11 c-24 6 -69 18
-100 27 l-58 16 0 201 0 201 -100 25 -100 24 0 102 0 102 -62 16 c-35 9 -71
19 -81 21 -62 14 -57 -13 -57 315 l0 299 -42 11 c-24 6 -58 16 -77 22 -33 10
-139 21 -113 11 10 -4 10 -8 1 -19 -6 -8 -16 -11 -22 -7 -5 3 -7 1 -4 -4 7
-11 -37 -65 -46 -56 -3 2 -4 -14 -2 -36 3 -40 2 -41 -23 -34 -76 18 -92 43
-54 87 16 20 16 20 0 7 -17 -13 -18 -4 -18 158 0 156 -2 171 -17 172 -10 0
-101 24 -203 53 -163 46 -185 54 -182 72 3 18 3 18 -10 2 -11 -15 -18 -16 -50
-6 -32 10 -61 38 -39 38 4 0 7 10 7 23 -1 16 4 21 19 20 11 -1 14 0 8 3 -7 3
-13 10 -13 15 0 6 5 7 10 4 6 -3 10 1 10 9 0 21 -8 20 -28 -4 -14 -16 -24 -19
-54 -14 -21 4 -36 9 -34 13 2 3 -14 7 -37 9 -23 1 -45 8 -49 15 -4 7 -8 8 -8
2 0 -5 -4 -4 -8 3 -5 7 -11 9 -15 5z m518 -243 c4 -6 12 -7 18 -4 9 5 9 4 0
-6 -9 -10 -15 -10 -28 4 -9 9 -12 16 -6 16 5 0 13 -5 16 -10z m67 -32 c-3 -14
0 -17 13 -11 13 4 16 3 11 -5 -10 -17 -26 -15 -33 6 -4 9 -11 20 -17 24 -6 4
-1 6 10 6 15 -2 20 -7 16 -20z m68 2 c0 -5 -5 -10 -11 -10 -5 0 -7 5 -4 10 3
6 8 10 11 10 2 0 4 -4 4 -10z m-100 -10 c0 -5 -7 -7 -15 -4 -8 4 -15 8 -15 10
0 2 7 4 15 4 8 0 15 -4 15 -10z m-40 -10 c0 -5 -5 -10 -11 -10 -5 0 -7 5 -4
10 3 6 8 10 11 10 2 0 4 -4 4 -10z m112 -22 c-7 -7 -12 -8 -12 -2 0 14 12 26
19 19 2 -3 -1 -11 -7 -17z m-52 2 c0 -5 -4 -10 -10 -10 -5 0 -10 5 -10 10 0 6
5 10 10 10 6 0 10 -4 10 -10z m-20 -33 c0 -5 -6 -5 -13 2 -8 6 -16 8 -19 5 -3
-2 -8 2 -11 10 -5 13 -2 13 18 4 14 -6 25 -16 25 -21z m118 20 c8 -10 6 -13
-11 -14 -12 0 -16 1 -9 4 6 3 10 9 6 14 -8 14 2 11 14 -4z m-68 -8 c0 -5 -4
-7 -10 -4 -5 3 -10 -2 -10 -11 0 -10 -3 -15 -6 -11 -9 9 3 37 16 37 5 0 10 -5
10 -11z m24 -21 c-5 -8 -1 -9 12 -5 19 7 19 7 0 -8 -23 -17 -42 -9 -25 11 14
17 23 19 13 2z m-102 -30 c-8 -8 -7 -15 6 -25 15 -13 15 -13 -5 -3 -20 9 -21
13 -11 30 7 10 14 17 17 14 3 -2 -1 -10 -7 -16z m35 -3 c0 -8 -4 -15 -9 -15
-10 0 -11 14 -1 23 9 10 10 9 10 -8z m100 -17 c-3 -7 -5 -2 -5 12 0 14 2 19 5
13 2 -7 2 -19 0 -25z m-33 -8 c-10 -16 -20 -27 -22 -25 -5 5 26 55 34 55 3 0
-3 -13 -12 -30z m-609 -20 c-4 -7 3 -9 19 -6 14 3 28 0 32 -5 3 -5 10 -6 16
-3 6 4 16 1 22 -7 6 -8 24 -14 40 -14 25 0 29 -4 30 -27 1 -23 -2 -27 -22 -25
-13 1 -28 7 -33 14 -6 6 -17 9 -25 6 -8 -3 -14 -1 -14 5 0 5 -8 9 -17 9 -57 0
-62 2 -58 31 5 34 4 32 11 32 3 0 2 -5 -1 -10z m635 6 c0 -2 -7 -7 -16 -10 -8
-3 -12 -2 -9 4 6 10 25 14 25 6z m20 -16 c-8 -5 -19 -10 -25 -10 -5 0 -3 5 5
10 8 5 20 10 25 10 6 0 3 -5 -5 -10z m-836 -828 c3 -5 -1 -9 -9 -9 -8 0 -12 4
-9 9 3 4 7 8 9 8 2 0 6 -4 9 -8z m-319 -133 c-9 -16 -17 -29 -19 -29 -3 0 -11
-3 -20 -6 -9 -3 -16 -1 -16 6 0 6 4 9 9 5 10 -5 41 20 41 34 0 4 -7 8 -15 8
-9 0 -14 -6 -11 -14 3 -7 1 -13 -5 -13 -6 0 -9 8 -7 18 2 9 8 17 15 17 6 0 15
3 19 7 16 17 23 -5 9 -33z m60 11 c17 -18 17 -20 2 -14 -9 3 -17 11 -17 18 0
6 -9 -2 -19 -18 -11 -17 -18 -33 -15 -38 3 -4 0 -8 -5 -8 -6 0 -11 3 -11 6 0
7 40 74 44 74 2 0 11 -9 21 -20z m-122 -30 c-3 -11 -9 -20 -15 -20 -5 0 -4 9
2 20 6 11 12 20 14 20 2 0 2 -9 -1 -20z m203 8 c4 -7 4 -10 -1 -6 -4 4 -14 0
-22 -10 -13 -15 -13 -15 -3 6 12 25 16 27 26 10z m-96 -13 c-8 -9 -9 -15 -2
-15 6 0 14 5 17 10 3 6 12 10 18 10 7 0 4 -5 -5 -11 -10 -5 -18 -15 -18 -21 0
-6 6 -6 15 2 13 11 18 11 28 0 7 -7 7 -10 2 -7 -6 3 -17 2 -25 -3 -10 -6 -20
-4 -32 6 -17 16 -14 44 4 44 6 0 5 -6 -2 -15z m-67 -30 c-3 -9 -8 -14 -10 -11
-3 3 -2 9 2 15 9 16 15 13 8 -4z m-63 -14 c0 -5 -7 -12 -16 -15 -14 -5 -15 -4
-4 9 14 17 20 19 20 6z m120 1 c0 -5 -7 -9 -15 -9 -8 0 -15 4 -15 9 0 4 7 8
15 8 8 0 15 -4 15 -8z m-90 -16 c0 -3 -4 -8 -10 -11 -5 -3 -10 -1 -10 4 0 6 5
11 10 11 6 0 10 -2 10 -4z m16 -18 c-21 -29 -20 -39 2 -32 16 5 16 5 -1 -6 -9
-6 -15 -15 -12 -21 4 -5 1 -9 -5 -9 -7 0 -10 6 -7 13 2 6 0 20 -5 31 -7 12 -7
16 0 12 6 -3 13 3 17 14 3 11 11 20 16 20 6 0 3 -10 -5 -22z m-56 -8 c-8 -5
-17 -7 -19 -4 -3 3 1 9 9 14 8 5 17 7 19 4 3 -3 -1 -9 -9 -14z m104 5 c-4 -8
-8 -15 -10 -15 -2 0 -4 7 -4 15 0 8 4 15 10 15 5 0 7 -7 4 -15z m-24 -5 c0 -5
-5 -10 -11 -10 -5 0 -7 5 -4 10 3 6 8 10 11 10 2 0 4 -4 4 -10z m47 -5 c0 -8
-4 -15 -9 -15 -10 0 -11 14 -1 23 9 10 10 9 10 -8z m29 -5 c0 -12 -4 -16 -9
-11 -5 5 -6 14 -3 20 10 15 12 14 12 -9z m-136 -32 c0 -4 -9 -12 -20 -18 -14
-7 -20 -7 -20 0 0 5 7 10 15 10 8 0 15 5 15 10 0 6 -8 10 -17 10 -15 0 -16 2
-3 10 14 8 29 -3 30 -22z m124 3 c4 -5 -3 -7 -14 -4 -23 6 -26 13 -6 13 8 0
17 -4 20 -9z m-129 -43 c-11 -6 -23 -16 -27 -22 -5 -8 -8 -7 -8 1 0 12 28 32
45 32 6 0 1 -5 -10 -11z m1742 -537 c11 -6 12 -10 4 -16 -9 -5 -9 -10 0 -22
17 -19 -7 -36 -32 -22 -10 5 -27 9 -38 9 -17 0 -21 6 -21 36 0 35 0 35 36 29
20 -3 43 -9 51 -14z m-27 -201 c0 -5 -5 -10 -11 -10 -5 0 -7 5 -4 10 3 6 8 10
11 10 2 0 4 -4 4 -10z m26 -48 c-1 -40 -4 -48 -19 -50 -11 0 -16 2 -13 5 3 4
-1 18 -10 31 -16 24 -15 26 7 43 13 10 27 19 30 19 3 0 5 -22 5 -48z m90 -3
c9 -10 12 -19 6 -19 -6 0 -13 4 -16 9 -3 5 -18 9 -32 9 -22 0 -24 -2 -11 -10
10 -5 17 -13 17 -19 0 -5 -9 -4 -20 3 -22 14 -26 34 -9 40 28 9 48 5 65 -13z
m-10 -24 c9 -8 11 -15 5 -15 -6 0 -10 -6 -8 -12 3 -16 -35 -11 -45 5 -9 15
-10 4 -2 -17 3 -9 10 -13 15 -10 17 10 9 -13 -10 -30 -18 -16 -18 -15 -19 29
-1 42 9 58 23 35 9 -15 27 -1 21 16 -7 18 2 18 20 -1z m-312 -475 c15 -11 18
-12 12 -1 -6 9 -4 12 5 9 17 -6 24 -178 8 -178 -6 0 -7 6 -3 13 5 9 4 9 -6 0
-9 -8 -19 -9 -32 -2 -10 5 -18 7 -18 4 0 -4 -5 -3 -12 1 -8 5 -6 10 8 15 15 6
16 8 2 8 -13 1 -16 12 -16 66 0 45 4 63 12 58 6 -4 4 2 -4 12 -9 11 -10 16 -2
11 7 -4 12 -2 12 6 0 8 3 9 8 3 4 -5 16 -17 26 -25z"/>
<path d="M1878 3282 c-8 -10 -9 -13 -1 -9 6 4 14 3 17 -2 4 -5 14 -8 24 -6 9
1 23 -2 30 -8 6 -5 12 -6 12 -2 0 4 7 1 16 -6 16 -13 52 -23 40 -12 -3 4 -1
12 4 18 7 9 3 11 -18 10 -15 -1 -35 5 -46 14 -10 9 -20 15 -22 14 -2 -2 -5 -3
-6 -2 -24 7 -40 4 -50 -9z m48 -4 c3 -4 -1 -5 -10 -4 -8 1 -18 5 -22 8 -3 4 1
5 10 4 8 -1 18 -5 22 -8z m84 -24 c0 -8 -19 -13 -24 -6 -3 5 1 9 9 9 8 0 15
-2 15 -3z"/>
<path d="M3007 1375 c-16 -11 -16 -13 -2 -19 9 -3 13 -11 9 -17 -4 -8 -3 -9 5
-5 9 6 9 11 1 21 -8 10 -7 14 2 18 7 2 11 7 8 10 -3 3 -13 0 -23 -8z"/>
<path d="M2790 835 c0 -5 5 -17 10 -25 5 -8 10 -10 10 -5 0 6 -5 17 -10 25 -5
8 -10 11 -10 5z"/>
<path d="M2775 780 c-3 -6 1 -7 9 -4 18 7 21 14 7 14 -6 0 -13 -4 -16 -10z"/>
<path d="M2767 749 c7 -7 15 -10 18 -7 3 3 -2 9 -12 12 -14 6 -15 5 -6 -5z"/>
<path d="M2801 731 c-9 -6 -10 -11 -2 -15 6 -4 11 -2 11 4 0 6 5 8 12 4 7 -4
8 -3 4 4 -8 14 -7 14 -25 3z"/>
<path d="M1980 3736 c0 -2 8 -10 18 -17 15 -13 16 -12 3 4 -13 16 -21 21 -21
13z"/>
<path d="M1904 3686 c24 -19 32 -20 42 -4 4 7 3 8 -4 4 -6 -4 -22 -2 -34 4
-22 11 -22 10 -4 -4z"/>
<path d="M2105 3690 c-3 -6 1 -7 9 -4 18 7 21 14 7 14 -6 0 -13 -4 -16 -10z"/>
<path d="M2131 3677 c-13 -21 -12 -21 5 -5 10 10 16 20 13 22 -3 3 -11 -5 -18
-17z"/>
<path d="M1882 3674 c10 -10 20 -16 22 -13 3 3 -5 11 -17 18 -21 13 -21 12 -5
-5z"/>
<path d="M1916 3644 c-23 -23 -20 -30 4 -9 11 10 20 20 20 22 0 7 -9 2 -24
-13z"/>
<path d="M2073 3642 c2 -12 6 -24 10 -28 3 -4 4 4 2 16 -6 30 -16 40 -12 12z"/>
<path d="M2106 3608 c3 -5 10 -6 15 -3 13 9 11 12 -6 12 -8 0 -12 -4 -9 -9z"/>
<path d="M740 3540 c-9 -6 -10 -10 -3 -10 6 0 15 5 18 10 8 12 4 12 -15 0z"/>
<path d="M817 3524 c4 -12 3 -15 -5 -10 -16 10 -15 1 1 -12 10 -8 13 -6 14 8
1 11 -2 22 -8 25 -5 4 -6 -2 -2 -11z"/>
<path d="M851 3514 c0 -11 3 -14 6 -6 3 7 2 16 -1 19 -3 4 -6 -2 -5 -13z"/>
<path d="M706 3501 c-13 -14 -14 -21 -5 -27 7 -4 10 -3 5 4 -3 6 2 15 11 21
10 5 15 12 12 15 -3 4 -14 -2 -23 -13z"/>
<path d="M787 3489 c7 -7 15 -10 18 -7 3 3 -2 9 -12 12 -14 6 -15 5 -6 -5z"/>
<path d="M853 3477 c0 -16 34 -20 43 -5 4 7 2 8 -5 4 -6 -4 -18 -3 -25 3 -9 8
-13 7 -13 -2z"/>
<path d="M766 3467 c3 -10 9 -15 12 -12 3 3 0 11 -7 18 -10 9 -11 8 -5 -6z"/>
<path d="M819 3463 c-13 -16 -12 -17 4 -4 9 7 17 15 17 17 0 8 -8 3 -21 -13z"/>
<path d="M653 3438 c-1 -10 3 -18 8 -18 6 0 7 5 3 12 -5 8 0 9 17 5 13 -4 27
-7 31 -7 4 0 4 -12 2 -27 -3 -15 -2 -25 1 -21 4 3 7 12 8 20 2 7 7 13 12 13 6
0 9 -3 8 -6 -1 -4 13 -5 32 -3 24 2 38 -2 45 -14 10 -15 10 -15 8 3 -3 15 -11
20 -33 20 -17 0 -36 6 -43 13 -7 6 -24 12 -38 12 -13 0 -24 4 -24 9 0 18 -36
7 -37 -11z"/>
<path d="M650 3373 c0 -6 8 -17 18 -24 16 -13 16 -13 2 6 -8 11 -16 22 -17 24
-2 2 -3 0 -3 -6z"/>
<path d="M670 3376 c0 -2 7 -7 16 -10 8 -3 12 -2 9 4 -6 10 -25 14 -25 6z"/>
<path d="M788 3373 c7 -3 16 -2 19 1 4 3 -2 6 -13 5 -11 0 -14 -3 -6 -6z"/>
<path d="M739 3357 c8 -9 16 -15 19 -12 3 3 12 -1 21 -8 14 -11 14 -10 2 6 -8
9 -16 15 -19 12 -3 -3 -12 1 -21 8 -14 11 -14 10 -2 -6z"/>
<path d="M815 3360 c-4 -6 -11 -7 -17 -4 -7 4 -8 2 -4 -5 6 -9 11 -9 22 0 14
11 18 19 10 19 -3 0 -8 -5 -11 -10z"/>
<path d="M740 3326 c0 -2 7 -7 16 -10 8 -3 12 -2 9 4 -6 10 -25 14 -25 6z"/>
<path d="M650 3311 c0 -6 4 -13 10 -16 6 -3 7 1 4 9 -7 18 -14 21 -14 7z"/>
<path d="M690 3311 c0 -6 4 -13 10 -16 6 -3 7 1 4 9 -7 18 -14 21 -14 7z"/>
<path d="M674 3271 c4 -5 1 -12 -4 -14 -6 -3 -5 -4 2 -3 15 3 23 26 8 26 -6 0
-9 -4 -6 -9z"/>
<path d="M707 3249 c7 -7 15 -10 18 -7 3 3 -2 9 -12 12 -14 6 -15 5 -6 -5z"/>
<path d="M810 3241 c0 -7 -4 -9 -10 -6 -5 3 -10 1 -10 -4 0 -6 4 -11 9 -11 13
0 25 20 17 27 -3 4 -6 1 -6 -6z"/>
<path d="M2576 3132 c-3 -4 4 -9 15 -9 23 -2 25 3 4 10 -8 4 -16 3 -19 -1z"/>
<path d="M3097 3062 l-47 -48 0 -100 0 -101 97 -26 98 -27 52 52 53 52 0 101
0 100 -93 23 c-50 12 -97 22 -102 22 -6 0 -32 -22 -58 -48z"/>
<path d="M2987 1506 c-4 -10 -1 -13 9 -9 15 6 19 23 5 23 -5 0 -11 -7 -14 -14z"/>
<path d="M2995 1273 c-16 -12 -16 -14 -3 -10 11 4 21 0 27 -11 6 -9 11 -12 11
-5 0 6 -5 15 -11 19 -8 4 -7 9 2 15 8 5 10 9 4 9 -5 -1 -19 -8 -30 -17z"/>
<path d="M2328 1183 c6 -2 9 -10 6 -15 -4 -7 -2 -8 5 -4 13 9 5 26 -12 25 -9
0 -8 -2 1 -6z"/>
<path d="M2251 1164 c0 -11 3 -14 6 -6 3 7 2 16 -1 19 -3 4 -6 -2 -5 -13z"/>
<path d="M2295 1171 c-3 -6 5 -15 17 -21 21 -10 21 -10 6 3 -10 8 -15 17 -11
20 3 4 4 7 0 7 -3 0 -8 -4 -12 -9z"/>
<path d="M2370 1155 c0 -8 4 -15 10 -15 5 0 7 7 4 15 -4 8 -8 15 -10 15 -2 0
-4 -7 -4 -15z"/>
<path d="M2324 1125 c-10 -8 -14 -15 -9 -15 6 0 3 -5 -5 -11 -10 -7 -11 -9 -2
-7 8 2 13 7 12 12 -1 4 7 14 17 22 10 7 15 14 12 14 -3 0 -14 -7 -25 -15z"/>
<path d="M2355 1120 c-3 -5 -3 -10 1 -10 4 0 -1 -7 -12 -16 -18 -14 -18 -15 4
-4 12 6 20 15 17 20 -3 4 1 11 7 13 9 4 10 6 1 6 -6 1 -15 -3 -18 -9z"/>
<path d="M2253 1100 c5 -32 22 -44 44 -30 17 11 17 11 0 6 -26 -8 -46 6 -21
15 17 7 17 8 1 8 -10 1 -15 6 -12 11 3 6 1 10 -4 10 -6 0 -9 -9 -8 -20z"/>
<path d="M2373 1087 c-3 -6 -1 -7 5 -3 5 3 12 1 14 -6 3 -8 6 -7 10 3 7 17
-19 22 -29 6z"/>
<path d="M2340 1058 c-10 -21 -10 -21 3 -6 8 10 18 14 22 10 5 -4 5 -1 1 6
-10 17 -14 15 -26 -10z"/>
<path d="M2415 1070 c3 -5 8 -10 11 -10 2 0 4 5 4 10 0 6 -5 10 -11 10 -5 0
-7 -4 -4 -10z"/>
<path d="M2315 1059 c-4 -6 -5 -12 -2 -15 2 -3 7 2 10 11 7 17 1 20 -8 4z"/>
<path d="M2251 1054 c-1 -6 5 -17 12 -23 10 -8 14 -7 14 4 0 8 -4 12 -8 9 -4
-2 -10 2 -12 8 -4 8 -6 9 -6 2z"/>
<path d="M2390 1042 c-8 -9 -14 -21 -12 -26 2 -4 -4 -6 -13 -3 -8 4 -15 2 -15
-4 0 -6 7 -9 16 -7 8 2 15 7 14 11 -1 5 7 15 17 22 10 7 16 16 13 18 -3 3 -12
-2 -20 -11z"/>
<path d="M2291 1034 c0 -11 3 -14 6 -6 3 7 2 16 -1 19 -3 4 -6 -2 -5 -13z"/>
<path d="M2417 1035 c-4 -8 -3 -16 1 -19 4 -3 9 4 9 15 2 23 -3 25 -10 4z"/>
<path d="M2915 880 c-3 -5 -3 -10 2 -10 4 0 1 -5 -7 -11 -12 -8 -12 -10 -1 -7
8 2 15 12 17 21 3 19 -2 22 -11 7z"/>
<path d="M2936 852 c-2 -4 -1 -14 5 -22 7 -12 9 -10 9 8 0 23 -5 28 -14 14z"/>
<path d="M2908 822 c9 -10 19 -17 21 -16 6 5 -20 34 -30 34 -5 0 -1 -8 9 -18z"/>
<path d="M2936 778 c5 -7 2 -9 -8 -6 -8 4 -15 0 -15 -7 0 -10 5 -11 19 -4 16
9 17 29 2 29 -3 0 -2 -5 2 -12z"/>
</g>
</svg>
